# xmcd
#
# Track frame offsets: 
#        150
#        17369
#        32032
#        48729
#        65091
#        81127
#        95829
#        115833
#        131007
#        147061
#        160815
#        174900
#        190922
#        206055
#        223252
#        237112
#        255497
#        271710
#        285300
#        299115
#        312753
#        329270
#
# Disc length: 4568 seconds
#
# Revision: 1
# Processed by: cddbd v1.5.2PL0 Copyright (c) Steve Scherf et al.
# Submitted via: ExactAudioCopy v0.99pb5
#
DISCID=4611d616
DTITLE=C.C. Catch - The 80's Album [CD 2)
DYEAR=2005
DGENRE=Pop
TTITLE0=Good Guys Only Win In Movies (Single-Version)
TTITLE1=Like A Hurricane
TTITLE2=Smokey Joe's Cafe
TTITLE3=Are You Man Enough
TTITLE4=Don't Be A Hero
TTITLE5=Soul Survivor (Single-Version)
TTITLE6=Midnight Gambler (Long Version)
TTITLE7=Don't Wait Too Long
TTITLE8=Dancing In Shadows
TTITLE9=House Of Mystic Lights (Radio Swing Mix)
TTITLE10=Don't Shoot My Sheriff Tonight
TTITLE11=Do You Love As You Look
TTITLE12=Backseat Of Your Cadillac (Single-Version)
TTITLE13=Summer Kisses
TTITLE14=Are You Serious
TTITLE15=Night In Africa
TTITLE16=Heartbeat City
TTITLE17=Baby I Need Your Love
TTITLE18=Little By Little
TTITLE19=Nothing But A Heartache (Radio Mix)
TTITLE20=If I Feel Love
TTITLE21=Fire Of Love
EXTD=YEAR: 2005
EXTT0=
EXTT1=
EXTT2=
EXTT3=
EXTT4=
EXTT5=
EXTT6=
EXTT7=
EXTT8=
EXTT9=
EXTT10=
EXTT11=
EXTT12=
EXTT13=
EXTT14=
EXTT15=
EXTT16=
EXTT17=
EXTT18=
EXTT19=
EXTT20=
EXTT21=
PLAYORDER=
